<?xml version="1.0" encoding="utf-8"?>
<!-- Generator: Adobe Illustrator 18.0.0, SVG Export Plug-In . SVG Version: 6.00 Build 0)  -->
<!DOCTYPE svg PUBLIC "-//W3C//DTD SVG 1.1//EN" "http://www.w3.org/Graphics/SVG/1.1/DTD/svg11.dtd">
<svg version="1.1" id="Layer_1" xmlns="http://www.w3.org/2000/svg" xmlns:xlink="http://www.w3.org/1999/xlink" x="0px" y="0px"
	 viewBox="0 0 180 180" enable-background="new 0 0 180 180" xml:space="preserve">
<path fill="none" stroke="#000000" stroke-width="6" stroke-linecap="round" stroke-linejoin="round" stroke-miterlimit="10" d="
	M59.3,136.9c4.6,1.1,9.3,2,14,2.6c12.4,1.7,25,1.7,37.4-0.2c6.2-0.9,12.3-2.3,18.3-4.1c2.8-0.9,6.2-1.6,8.8-3.1
	c0.5-0.3,0.9-0.7,1.2-1.1c0.8-1.2,0.4-2.8-0.2-4.4c-1.3-3.8-2.6-7.7-4.9-11c-3.2-4.5-7.3-5.8-12.3-7.1c-4-1-8-2-12.1-3
	c-1.5-0.4-3-0.7-4.2-1.6c-2.8-1.9-4.1-6-4.1-9.2c0-5.5,3.9-7.7,6.3-12c2.3-4.1,3.5-8.8,3.5-13.6c0-6.9-2.6-13-7.1-18.1
	c-0.5-0.5-3.5-3.5-2.7-4.3c1.4-1.6,3.7-5.1,3-7.3c-4.1,2-7.7,3.9-12.3,4.7c-5.9,1-11.4,2.1-15.8,6.6c-4.8,4.9-7.2,11.7-7.2,18.5
	c0,4.6,1.1,9.1,3.3,13.1c2.1,3.7,5.8,6.4,6.4,10.8c0.5,3.6-0.9,8.7-4,10.9c-1.2,0.8-2.7,1.2-4.2,1.6c-4,1-8,2-12.1,3
	c-3.4,0.8-6.9,1.7-9.6,3.9c-4.1,3.3-5.6,8.6-6.9,13.5c-0.4,1.6-0.8,3.3-1.1,5"/>
</svg>
