<?xml version="1.0" encoding="utf-8"?>
<!-- Generator: Adobe Illustrator 18.0.0, SVG Export Plug-In . SVG Version: 6.00 Build 0)  -->
<!DOCTYPE svg PUBLIC "-//W3C//DTD SVG 1.1//EN" "http://www.w3.org/Graphics/SVG/1.1/DTD/svg11.dtd">
<svg version="1.1" id="Layer_1" xmlns="http://www.w3.org/2000/svg" xmlns:xlink="http://www.w3.org/1999/xlink" x="0px" y="0px"
	 viewBox="0 0 180 180" enable-background="new 0 0 180 180" xml:space="preserve">
<g>
	<path fill="none" stroke="#000000" stroke-width="6" stroke-linecap="round" stroke-linejoin="round" stroke-miterlimit="10" d="
		M78.1,122.4h-8.6c-3.7,0-7,3.2-7,6.9v0.2c0,3.7,3.2,6.8,7,6.8h40.7c3.7,0,6.4-3,6.4-6.8v-0.2c0-3.7-2.7-6.9-6.4-6.9H98.4h-8.8v-2.5
		"/>
	<path fill="none" stroke="#000000" stroke-width="6" stroke-linecap="round" stroke-linejoin="round" stroke-miterlimit="10" d="
		M103.5,109.3h29.2c3.8,0,6.9-2.8,6.9-6.6V50.5c0-3.8-3.1-6.9-6.9-6.9h-85c-3.8,0-7.3,3.1-7.3,6.9v52.1c0,3.8,3.5,6.6,7.3,6.6h30.2
		h11.7v9"/>
	
		<line fill="none" stroke="#000000" stroke-width="6" stroke-linecap="round" stroke-linejoin="round" stroke-miterlimit="10" x1="89.6" y1="118.3" x2="89.6" y2="119.9"/>
</g>
</svg>
